<?xml version="1.0" encoding="utf-8"?>
<!-- Generator: Adobe Illustrator 24.0.2, SVG Export Plug-In . SVG Version: 6.00 Build 0)  -->
<svg version="1.1" id="Warstwa_1" xmlns="http://www.w3.org/2000/svg" xmlns:xlink="http://www.w3.org/1999/xlink" x="0px" y="0px"
	 viewBox="0 0 430 430" style="enable-background:new 0 0 430 430;" xml:space="preserve">
<style type="text/css">
	.st0{fill:#4BB3FD;}
	.st1{opacity:0.5;}
	.st2{opacity:0;}
	.st3{fill:#121331;}
	.st4{fill:#3A3347;}
	.st5{fill:#f28ba8;}
	.st6{fill:#FFC738;}
	.st7{fill:#ebe6ef;}
	.st8{fill:#2CA58D;}
	.st9{fill:#F24C00;}
	.st10{fill:#F9C9C0;}
	.st11{fill:#646E78;}
	.st12{opacity:0.4;}
	.st13{fill:#B26836;}
	.st14{opacity:0.8;}
</style>
<g>
	<path class="st5" d="M359.82,85.1c-16.85-16.87-38.25-27.19-61.88-29.84c-30.61-3.44-60.65,6.6-82.95,27.6
		c-19.39-18.26-44.56-28.27-71.24-28.27c-27.78,0-53.91,10.84-73.59,30.51c-19.67,19.65-30.5,45.78-30.5,73.57
		c0,27.79,10.83,53.92,30.5,73.57l142.4,142.4c0.64,0.64,1.52,1.01,2.43,1.01c0.91,0,1.79-0.36,2.43-1.01l142.39-142.4
		c19.67-19.68,30.51-45.8,30.51-73.55C390.33,130.91,379.5,104.78,359.82,85.1z"/>
</g>
<g class="st1">
	<path class="st5" d="M215.23,82.64v293c-0.08,0.01-0.15,0.01-0.23,0.01c-0.92,0-1.79-0.36-2.43-1.01l-142.4-142.4
		c-19.67-19.64-30.51-45.77-30.51-73.57c0-27.79,10.84-53.92,30.51-73.57c19.67-19.67,45.81-30.51,73.58-30.51
		c26.69,0,51.86,10.02,71.24,28.27C215.07,82.79,215.15,82.71,215.23,82.64z"/>
</g>
<g>
	<path class="st7" d="M66.82,162.88c-1.93,0-3.5-1.57-3.5-3.5c0-44.73,36.39-81.12,81.12-81.12c1.93,0,3.5,1.57,3.5,3.5
		s-1.57,3.5-3.5,3.5c-40.87,0-74.12,33.25-74.12,74.12C70.32,161.31,68.76,162.88,66.82,162.88z"/>
</g>
</svg>
